C:/Program Files/Krita (x64)/bin/ffmpeg.exe -hide_banner -y -y -r 10 -start_number 0 -start_number_range 1 -i C:/Users/LIFE/Desktop/Vit贸ria/Vit贸ria/site vitoria/imagens/quadro%04d.png -f apng -pred none -plays 0 C:/Users/LIFE/Desktop/Vit贸ria/Vit贸ria/site vitoria/imagens/cleitim.apng
=====================================================
Input #0, image2, from 'C:/Users/LIFE/Desktop/Vitria/Vitria/site vitoria/imagens/quadro%04d.png':
  Duration: 00:00:00.64, start: 0.000000, bitrate: N/A
  Stream #0:0: Video: png, rgba(pc), 1000x500 [SAR 11811:11811 DAR 2:1], 25 fps, 25 tbr, 25 tbn, 25 tbc
Stream mapping:
  Stream #0:0 -> #0:0 (png (native) -> apng (native))
Press [q] to stop, [?] for help
Output #0, apng, to 'C:/Users/LIFE/Desktop/Vitria/Vitria/site vitoria/imagens/cleitim.apng':
  Metadata:
    encoder         : Lavf58.76.100
  Stream #0:0: Video: apng, rgba(pc, progressive), 1000x500 [SAR 11811:11811 DAR 2:1], q=2-31, 200 kb/s, 10 fps, 10 tbn
    Metadata:
      encoder         : Lavc58.134.100 apng
frame=    1 fps=0.0 q=0.0 size=       0kB time=00:00:00.00 bitrate=N/A speed=   0x    frame=   16 fps=0.0 q=-0.0 Lsize=      96kB time=00:00:01.60 bitrate= 490.6kbits/s speed=11.4x    
video:96kB audio:0kB subtitle:0kB other streams:0kB global headers:0kB muxing overhead: 0.087723%
